<?xml version="1.0" encoding="UTF-8"?>
<svg xmlns="http://www.w3.org/2000/svg" xmlns:xlink="http://www.w3.org/1999/xlink" viewBox="0 0 24 24" width="24px" height="24px">
<g id="surface56216289">
<path style=" stroke:none;fill-rule:nonzero;fill:rgb(18.039216%,1.960784%,30.588236%);fill-opacity:1;" d="M 7.199219 1.921875 C 4.289062 1.921875 1.921875 4.289062 1.921875 7.199219 L 1.921875 16.800781 C 1.921875 19.710938 4.289062 22.078125 7.199219 22.078125 L 16.800781 22.078125 C 19.710938 22.078125 22.078125 19.710938 22.078125 16.800781 L 22.078125 7.199219 C 22.078125 4.289062 19.710938 1.921875 16.800781 1.921875 Z M 8.035156 2.878906 L 13.164062 2.878906 L 15.964844 7.679688 L 10.835938 7.679688 Z M 14.273438 2.878906 L 16.800781 2.878906 C 19.191406 2.878906 21.121094 4.808594 21.121094 7.199219 L 21.121094 7.679688 L 17.074219 7.679688 Z M 6.953125 2.929688 L 9.726562 7.679688 L 2.878906 7.679688 L 2.878906 7.199219 C 2.878906 4.894531 4.683594 3.0625 6.953125 2.929688 Z M 2.878906 8.640625 L 21.121094 8.640625 L 21.121094 16.800781 C 21.121094 19.191406 19.191406 21.121094 16.800781 21.121094 L 7.199219 21.121094 C 4.808594 21.121094 2.878906 19.191406 2.878906 16.800781 Z M 10.550781 11.046875 C 9.808594 11.0625 9.121094 11.648438 9.121094 12.460938 L 9.121094 16.820312 C 9.121094 17.898438 10.34375 18.582031 11.285156 18.046875 L 15.117188 15.867188 C 16.050781 15.335938 16.050781 13.941406 15.117188 13.410156 L 11.285156 11.230469 C 11.050781 11.097656 10.796875 11.039062 10.550781 11.046875 Z M 10.550781 11.992188 C 10.636719 11.996094 10.722656 12.015625 10.808594 12.066406 L 14.644531 14.246094 C 14.984375 14.4375 14.984375 14.839844 14.644531 15.03125 L 10.808594 17.210938 C 10.464844 17.410156 10.078125 17.1875 10.078125 16.820312 L 10.078125 12.460938 C 10.078125 12.273438 10.175781 12.128906 10.316406 12.050781 C 10.386719 12.011719 10.46875 11.992188 10.550781 11.992188 Z M 10.550781 11.992188 "/>
</g>
</svg>
