<?xml version="1.0" encoding="UTF-8"?>
<svg xmlns="http://www.w3.org/2000/svg" xmlns:xlink="http://www.w3.org/1999/xlink" viewBox="0 0 24 24" width="24px" height="24px">
<g id="surface56062357">
<path style=" stroke:none;fill-rule:nonzero;fill:rgb(18.039216%,1.960784%,30.588236%);fill-opacity:1;" d="M 11.714844 4.320312 C 8.542969 4.320312 5.570312 4.558594 3.984375 4.894531 C 2.929688 5.136719 2.015625 5.855469 1.824219 6.960938 C 1.632812 8.109375 1.441406 9.839844 1.441406 12 C 1.441406 14.160156 1.632812 15.839844 1.871094 17.039062 C 2.0625 18.09375 2.976562 18.863281 4.03125 19.105469 C 5.714844 19.441406 8.589844 19.679688 11.761719 19.679688 C 14.929688 19.679688 17.808594 19.441406 19.488281 19.105469 C 20.542969 18.863281 21.457031 18.144531 21.648438 17.039062 C 21.839844 15.839844 22.078125 14.113281 22.125 11.953125 C 22.125 9.792969 21.886719 8.0625 21.648438 6.863281 C 21.457031 5.808594 20.542969 5.039062 19.488281 4.800781 C 17.808594 4.558594 14.878906 4.320312 11.714844 4.320312 Z M 11.714844 5.28125 C 15.167969 5.28125 17.953125 5.566406 19.296875 5.808594 C 20.015625 6 20.589844 6.480469 20.6875 7.105469 C 20.976562 8.640625 21.167969 10.273438 21.167969 11.953125 C 21.121094 14.015625 20.878906 15.695312 20.6875 16.894531 C 20.542969 17.808594 19.585938 18.09375 19.296875 18.191406 C 17.566406 18.527344 14.6875 18.765625 11.808594 18.765625 C 8.925781 18.765625 6 18.574219 4.320312 18.191406 C 3.601562 18 3.023438 17.519531 2.929688 16.894531 C 2.542969 15.550781 2.398438 13.777344 2.398438 12 C 2.398438 9.792969 2.59375 8.160156 2.785156 7.152344 C 2.929688 6.238281 3.9375 5.953125 4.175781 5.855469 C 5.761719 5.519531 8.6875 5.28125 11.714844 5.28125 Z M 9.121094 8.160156 L 9.121094 15.839844 L 15.839844 12 Z M 10.078125 9.792969 L 13.921875 12 L 10.078125 14.207031 Z M 10.078125 9.792969 "/>
</g>
</svg>
