<?xml version="1.0" encoding="UTF-8"?>
<svg xmlns="http://www.w3.org/2000/svg" xmlns:xlink="http://www.w3.org/1999/xlink" viewBox="0 0 24 24" width="24px" height="24px">
<g id="surface56209927">
<path style=" stroke:none;fill-rule:nonzero;fill:rgb(18.039216%,1.960784%,30.588236%);fill-opacity:1;" d="M 12 2 C 6.464844 2 2 6.464844 2 12 C 2 17.535156 6.464844 22 12 22 C 17.535156 22 22 17.535156 22 12 C 22 6.464844 17.535156 2 12 2 Z M 12 4 C 16.464844 4 20 7.535156 20 12 C 20 16.058594 17.082031 19.335938 13.199219 19.902344 L 13.199219 14.402344 L 15.5 14.402344 L 15.902344 12 L 13.199219 12 L 13.199219 10.699219 C 13.199219 9.699219 13.5 8.800781 14.402344 8.800781 L 15.902344 8.800781 L 15.902344 6.800781 C 15.601562 6.800781 15.097656 6.699219 14.097656 6.699219 C 11.898438 6.699219 10.699219 7.800781 10.699219 10.402344 L 10.699219 12 L 8.402344 12 L 8.402344 14.402344 L 10.601562 14.402344 L 10.601562 19.875 C 6.816406 19.222656 4 15.988281 4 12 C 4 7.535156 7.535156 4 12 4 Z M 12 4 "/>
</g>
</svg>
