<?xml version="1.0" encoding="UTF-8"?>
<svg xmlns="http://www.w3.org/2000/svg" xmlns:xlink="http://www.w3.org/1999/xlink" viewBox="0 0 50 50" width="50px" height="50px">
<g id="surface55919987">
<path style=" stroke:none;fill-rule:nonzero;fill:rgb(18.039216%,1.960784%,30.588236%);fill-opacity:1;" d="M 15 4 C 8.9375 4 4 8.9375 4 15 L 4 35 C 4 41.0625 8.9375 46 15 46 L 35 46 C 41.0625 46 46 41.0625 46 35 L 46 15 C 46 8.9375 41.0625 4 35 4 Z M 16.738281 6 L 27.425781 6 L 33.257812 16 L 22.574219 16 Z M 29.738281 6 L 35 6 C 39.984375 6 44 10.015625 44 15 L 44 16 L 35.574219 16 Z M 14.488281 6.101562 L 20.261719 16 L 6 16 L 6 15 C 6 10.199219 9.757812 6.382812 14.488281 6.101562 Z M 6 18 L 44 18 L 44 35 C 44 39.984375 39.984375 44 35 44 L 15 44 C 10.015625 44 6 39.984375 6 35 Z M 21.980469 23.011719 C 20.433594 23.050781 19 24.269531 19 25.957031 L 19 35.039062 C 19 37.292969 21.550781 38.714844 23.511719 37.597656 L 31.5 33.054688 C 33.441406 31.953125 33.441406 29.042969 31.5 27.9375 L 23.511719 23.398438 L 23.507812 23.398438 C 23.019531 23.121094 22.492188 23 21.980469 23.011719 Z M 21.980469 24.988281 C 22.160156 24.988281 22.34375 25.035156 22.519531 25.136719 L 30.511719 29.679688 C 31.222656 30.082031 31.222656 30.914062 30.511719 31.320312 L 22.519531 35.859375 C 21.804688 36.269531 21 35.808594 21 35.042969 L 21 25.957031 C 21 25.574219 21.203125 25.265625 21.492188 25.109375 C 21.636719 25.027344 21.804688 24.984375 21.980469 24.988281 Z M 21.980469 24.988281 "/>
</g>
</svg>
