<?xml version="1.0" encoding="UTF-8"?>
<svg xmlns="http://www.w3.org/2000/svg" xmlns:xlink="http://www.w3.org/1999/xlink" viewBox="0 0 24 24" width="24px" height="24px">
<g id="surface56101890">
<path style=" stroke:none;fill-rule:nonzero;fill:rgb(18.039216%,1.960784%,30.588236%);fill-opacity:1;" d="M 21.804688 3.824219 L 21.125 4.226562 C 20.4375 4.636719 19.671875 4.929688 18.863281 5.105469 C 18.101562 4.363281 17.070312 3.898438 15.929688 3.898438 C 13.601562 3.898438 11.707031 5.792969 11.707031 8.117188 C 11.707031 8.300781 11.746094 8.476562 11.769531 8.65625 C 8.75 8.402344 6.070312 6.945312 4.261719 4.726562 L 3.988281 4.390625 L 3.769531 4.765625 C 3.40625 5.386719 3.199219 6.113281 3.199219 6.886719 C 3.199219 7.949219 3.601562 8.914062 4.25 9.660156 C 4.027344 9.585938 3.8125 9.507812 3.613281 9.398438 L 3.167969 9.148438 L 3.167969 9.707031 C 3.167969 11.277344 4.035156 12.636719 5.3125 13.363281 C 5.175781 13.355469 5.035156 13.351562 4.898438 13.324219 L 4.402344 13.230469 L 4.554688 13.710938 C 5.015625 15.140625 6.230469 16.1875 7.71875 16.503906 C 6.535156 17.261719 5.144531 17.71875 3.636719 17.71875 C 3.332031 17.71875 3.03125 17.703125 2.734375 17.667969 L 1.4375 17.511719 L 2.539062 18.21875 C 4.320312 19.359375 6.4375 20.027344 8.710938 20.027344 C 12.398438 20.027344 15.277344 18.488281 17.214844 16.289062 C 19.152344 14.089844 20.160156 11.238281 20.160156 8.574219 C 20.160156 8.445312 20.160156 8.324219 20.15625 8.199219 C 20.890625 7.640625 21.542969 6.972656 22.058594 6.203125 L 22.632812 5.339844 L 21.683594 5.761719 C 21.332031 5.921875 20.96875 6.042969 20.597656 6.144531 C 21.019531 5.695312 21.371094 5.183594 21.566406 4.574219 Z M 15.929688 4.496094 C 16.972656 4.496094 17.910156 4.9375 18.570312 5.640625 L 18.683594 5.761719 L 18.847656 5.730469 C 19.464844 5.609375 20.042969 5.394531 20.601562 5.144531 C 20.308594 5.636719 19.949219 6.074219 19.445312 6.375 L 19.207031 6.519531 L 19.433594 6.96875 L 19.644531 6.945312 C 20.082031 6.890625 20.5 6.800781 20.902344 6.679688 C 20.53125 7.101562 20.128906 7.492188 19.675781 7.824219 L 19.546875 7.917969 L 19.550781 8.078125 C 19.558594 8.242188 19.5625 8.410156 19.5625 8.574219 C 19.5625 11.085938 18.601562 13.8125 16.765625 15.894531 C 14.929688 17.976562 12.230469 19.425781 8.710938 19.425781 C 6.988281 19.425781 5.371094 19.011719 3.925781 18.296875 C 5.714844 18.230469 7.367188 17.613281 8.6875 16.578125 L 9.351562 16.058594 L 8.507812 16.042969 C 7.097656 16.015625 5.921875 15.164062 5.347656 13.96875 C 5.425781 13.972656 5.5 13.988281 5.578125 13.988281 C 5.964844 13.988281 6.335938 13.9375 6.691406 13.84375 L 7.914062 13.507812 L 6.671875 13.257812 C 5.15625 12.953125 4.03125 11.691406 3.84375 10.136719 C 4.28125 10.308594 4.738281 10.433594 5.230469 10.449219 L 6.28125 10.480469 L 5.410156 9.898438 C 4.4375 9.25 3.796875 8.144531 3.796875 6.886719 C 3.796875 6.367188 3.933594 5.886719 4.128906 5.441406 C 6.109375 7.671875 8.917969 9.152344 12.09375 9.3125 L 12.492188 9.332031 L 12.402344 8.945312 C 12.339844 8.679688 12.308594 8.402344 12.308594 8.117188 C 12.308594 6.117188 13.925781 4.496094 15.929688 4.496094 Z M 15.898438 5.101562 C 15.734375 5.101562 15.601562 5.234375 15.601562 5.398438 C 15.601562 5.566406 15.734375 5.699219 15.898438 5.699219 C 16.066406 5.699219 16.199219 5.566406 16.199219 5.398438 C 16.199219 5.234375 16.066406 5.101562 15.898438 5.101562 Z M 14.542969 5.460938 C 14.492188 5.464844 14.441406 5.476562 14.398438 5.503906 C 14.253906 5.585938 14.207031 5.769531 14.289062 5.910156 C 14.375 6.054688 14.554688 6.105469 14.699219 6.023438 C 14.769531 5.980469 14.816406 5.917969 14.839844 5.839844 C 14.859375 5.761719 14.851562 5.679688 14.808594 5.609375 C 14.753906 5.515625 14.652344 5.457031 14.542969 5.460938 Z M 13.546875 6.449219 C 13.445312 6.457031 13.355469 6.511719 13.300781 6.601562 C 13.261719 6.667969 13.25 6.75 13.273438 6.828125 C 13.292969 6.90625 13.34375 6.96875 13.410156 7.011719 C 13.554688 7.09375 13.738281 7.042969 13.820312 6.898438 C 13.902344 6.757812 13.855469 6.574219 13.710938 6.492188 C 13.660156 6.460938 13.605469 6.449219 13.546875 6.449219 Z M 13.199219 7.800781 C 13.035156 7.800781 12.898438 7.933594 12.898438 8.101562 C 12.898438 8.265625 13.035156 8.398438 13.199219 8.398438 C 13.367188 8.398438 13.5 8.265625 13.5 8.101562 C 13.5 7.933594 13.367188 7.800781 13.199219 7.800781 Z M 7.199219 10.5 C 7.035156 10.5 6.898438 10.632812 6.898438 10.800781 C 6.898438 10.964844 7.035156 11.101562 7.199219 11.101562 C 7.367188 11.101562 7.5 10.964844 7.5 10.800781 C 7.5 10.632812 7.367188 10.5 7.199219 10.5 Z M 8.398438 10.800781 C 8.234375 10.800781 8.101562 10.933594 8.101562 11.101562 C 8.101562 11.265625 8.234375 11.398438 8.398438 11.398438 C 8.566406 11.398438 8.699219 11.265625 8.699219 11.101562 C 8.699219 10.933594 8.566406 10.800781 8.398438 10.800781 Z M 9.601562 11.101562 C 9.433594 11.101562 9.300781 11.234375 9.300781 11.398438 C 9.300781 11.566406 9.433594 11.699219 9.601562 11.699219 C 9.765625 11.699219 9.898438 11.566406 9.898438 11.398438 C 9.898438 11.234375 9.765625 11.101562 9.601562 11.101562 Z M 8.699219 13.199219 C 8.535156 13.199219 8.398438 13.335938 8.398438 13.5 C 8.398438 13.664062 8.535156 13.800781 8.699219 13.800781 C 8.867188 13.800781 9 13.664062 9 13.5 C 9 13.335938 8.867188 13.199219 8.699219 13.199219 Z M 9.898438 13.199219 C 9.734375 13.199219 9.601562 13.335938 9.601562 13.5 C 9.601562 13.664062 9.734375 13.800781 9.898438 13.800781 C 10.066406 13.800781 10.199219 13.664062 10.199219 13.5 C 10.199219 13.335938 10.066406 13.199219 9.898438 13.199219 Z M 10.199219 15.300781 C 10.035156 15.300781 9.898438 15.433594 9.898438 15.601562 C 9.898438 15.765625 10.035156 15.898438 10.199219 15.898438 C 10.367188 15.898438 10.5 15.765625 10.5 15.601562 C 10.5 15.433594 10.367188 15.300781 10.199219 15.300781 Z M 10.199219 15.300781 "/>
</g>
</svg>
